<?xml version="1.0" encoding="utf-8"?>
<!-- Generator: Adobe Illustrator 19.0.0, SVG Export Plug-In . SVG Version: 6.00 Build 0)  -->
<svg version="1.0" id="图层_1" xmlns="http://www.w3.org/2000/svg" xmlns:xlink="http://www.w3.org/1999/xlink" x="0px" y="0px"
	 viewBox="0 0 23 23" style="enable-background:new 0 0 23 23;" xml:space="preserve">
<style type="text/css">
	.st0{fill:#FFFFFF;}
</style>
<g id="XMLID_30_">
	<g id="XMLID_36_">
		<path id="XMLID_42_" class="st0" d="M11.5,23C5.2,23,0,17.8,0,11.5C0,5.2,5.2,0,11.5,0S23,5.2,23,11.5C23,17.8,17.8,23,11.5,23z
			 M11.5,1C5.7,1,1,5.7,1,11.5C1,17.3,5.7,22,11.5,22S22,17.3,22,11.5C22,5.7,17.3,1,11.5,1z"/>
	</g>
	<path id="XMLID_41_" class="st0" d="M15.9,10.1V9c0-2.4-2-4.4-4.4-4.4c-2.4,0-4.4,2-4.4,4.4v1.1c-0.8,0.2-1.4,0.9-1.4,1.7v2.8
		c0,0.3,0.2,0.5,0.5,0.5s0.5-0.2,0.5-0.5v-2.8c0-0.4,0.3-0.8,0.8-0.8h8c0.4,0,0.8,0.3,0.8,0.8v4.8c0,0.4-0.3,0.8-0.8,0.8h-8
		c-0.4,0-0.8-0.3-0.8-0.8c0-0.3-0.2-0.5-0.5-0.5s-0.5,0.2-0.5,0.5c0,1,0.8,1.8,1.8,1.8h8c1,0,1.8-0.8,1.8-1.8v-4.8
		C17.3,11,16.7,10.3,15.9,10.1z M11.5,5.6C13.4,5.6,15,7.1,15,9v1H8V9C8,7.1,9.6,5.6,11.5,5.6z"/>
</g>
</svg>
