<?xml version="1.0" encoding="utf-8"?>
<!-- Generator: Adobe Illustrator 19.0.0, SVG Export Plug-In . SVG Version: 6.00 Build 0)  -->
<svg version="1.0" id="图层_1" xmlns="http://www.w3.org/2000/svg" xmlns:xlink="http://www.w3.org/1999/xlink" x="0px" y="0px"
	 viewBox="0 0 23 23" style="enable-background:new 0 0 23 23;" xml:space="preserve">
<style type="text/css">
	.st0{fill:#FFFFFF;}
</style>
<g id="XMLID_1_">
	<g id="XMLID_43_">
		<path id="XMLID_54_" class="st0" d="M11.5,23C5.2,23,0,17.8,0,11.5S5.2,0,11.5,0C17.8,0,23,5.2,23,11.5S17.8,23,11.5,23z M11.5,1
			C5.7,1,1,5.7,1,11.5S5.7,22,11.5,22C17.3,22,22,17.3,22,11.5S17.3,1,11.5,1z"/>
	</g>
	<path id="XMLID_58_" class="st0" d="M17.4,17.5c0,0-0.9-3.3-3.8-4.4c1.4-0.7,2.3-2.2,2.3-3.8c0-2.4-2-4.4-4.4-4.4
		c-2.4,0-4.4,2-4.4,4.4c0,0.8,0.2,1.6,0.7,2.3c0.1,0.2,0.4,0.3,0.6,0.1c0.2-0.1,0.3-0.4,0.1-0.6C8.2,10.6,8,9.9,8,9.3
		c0-1.9,1.6-3.5,3.5-3.5S15,7.4,15,9.3c0,1.9-1.5,3.4-3.3,3.5c-0.1,0-0.1,0-0.2,0c0,0,0,0,0,0c-4.6,0-5.9,4.7-5.9,4.8
		C5.6,17.8,5.7,18,6,18.1c0.3,0.1,0.5-0.1,0.6-0.3c0-0.2,1.1-4,4.9-4c0,0,0,0,0,0c3.8,0,4.9,3.9,4.9,4c0.1,0.2,0.3,0.4,0.5,0.4
		c0,0,0.1,0,0.1,0C17.3,18,17.4,17.8,17.4,17.5z"/>
</g>
</svg>
